<svg
        xmlns="http://www.w3.org/2000/svg"
        viewBox="0 0 16 16">
    <path fill="currentColor" d="M15.8 7.6L15 4.4C14.1 1.2 10.9-.7 7.7.2l-3.3.9C1.2 1.9-.7 5.2.2 8.4l.8 3.2c.9 3.2 4.1 5.1 7.3 4.2l3.2-.8c3.3-.9 5.2-4.2 4.3-7.4zM9.5 13c-.1 0-.1 0 0 0H3.3c-.1 0-.3-.1-.3-.3 0-.2.1-.3.2-.3l1.2-.3c2.3-.6 5.5-1.4 5.5-2.8 0-.4-.3-.5-1.3-.8C8 8.3 7 8 6 7.3c-.6-.3-1.4-1-1.5-1.8 0-.3 0-.7.5-1.1C6.3 3.2 7.5 3 7.5 3c.1 0 .3.1.3.2s0 .3-.2.4c-.2.2-1.1.8-1.4 1.4-.1.2 0 .3 0 .4.1.3.8.6 1 .7.9.3 1.8.6 2.5.7 1.8.5 3.3.9 3.3 2.3 0 2.8-3.4 3.8-3.5 3.9z"></path>
</svg>
