<svg
        xmlns="http://www.w3.org/2000/svg"
        viewBox="0 0 16 16">
    <path fill="currentColor" d="M11.1,6.2C9.8,5.9,8.4,5.5,7,5C6.6,4.9,5.6,4.5,5.4,3.9c0-0.1-0.1-0.3,0-0.6c0.4-1,1.9-2,2.5-2.3c0.2-0.1,0.3-0.4,0.2-0.6C8,0.2,7.8,0,7.5,0.1c-0.1,0-2,0.3-4.1,2.2C2.7,2.9,2.6,3.6,2.6,4.1c0.1,1.3,1.5,2.5,2.3,3c1.7,1,3.2,1.5,4.3,1.8c1.5,0.5,2,0.7,2,1.3c0,2.2-5.1,3.5-8.8,4.4c-0.7,0.2-1.3,0.3-1.9,0.5c-0.2,0.1-0.4,0.3-0.4,0.5S0.3,16,0.6,16h9.8c0.2-0.1,5.6-1.8,5.6-6.2C16.3,7.4,13.9,6.8,11.1,6.2L11.1,6.2z"></path>
</svg>
